<?xml version="1.0" standalone="no"?><svg xmlns="http://www.w3.org/2000/svg" viewBox="0 0 1440 320"><path fill="#6482d0" fill-opacity="1" d="M0,128L40,154.7C80,181,160,235,240,218.7C320,203,400,117,480,117.3C560,117,640,203,720,197.3C800,192,880,96,960,90.7C1040,85,1120,171,1200,197.3C1280,224,1360,192,1400,176L1440,160L1440,320L1400,320C1360,320,1280,320,1200,320C1120,320,1040,320,960,320C880,320,800,320,720,320C640,320,560,320,480,320C400,320,320,320,240,320C160,320,80,320,40,320L0,320Z"></path></svg>